<?xml version="1.0" standalone="no"?>
<!DOCTYPE svg PUBLIC "-//W3C//DTD SVG 20010904//EN"
 "http://www.w3.org/TR/2001/REC-SVG-20010904/DTD/svg10.dtd">
<svg version="1.0" xmlns="http://www.w3.org/2000/svg"
 width="236.000000pt" height="254.000000pt" viewBox="0 0 236.000000 254.000000"
 preserveAspectRatio="xMidYMid meet">

<g transform="translate(0.000000,254.000000) scale(0.100000,-0.100000)"
fill="#000000" stroke="none">
<path d="M1000 2525 c-638 -100 -1081 -701 -985 -1336 97 -645 696 -1091 1336
-994 645 97 1091 696 994 1336 -97 647 -702 1094 -1345 994z m148 -27 l5 -22
8 22 c5 12 13 22 20 22 6 0 13 -10 17 -22 l5 -22 8 22 c7 19 15 22 63 19 53
-2 55 -3 50 -27 -4 -24 -4 -24 5 -2 11 24 35 28 78 10 15 -6 33 -10 38 -9 16
4 205 -62 205 -71 0 -5 5 -6 10 -3 6 3 10 1 10 -4 0 -6 7 -11 16 -11 20 0 93
-41 173 -98 91 -65 249 -226 274 -279 6 -13 14 -23 19 -23 4 0 8 -6 8 -14 0
-8 7 -22 16 -30 8 -9 12 -22 8 -28 -4 -7 -4 -10 1 -6 8 7 63 -92 68 -122 1 -8
7 -18 12 -22 6 -4 -1 -8 -15 -9 l-25 -1 25 -7 c16 -4 28 -17 33 -36 5 -17 15
-50 22 -75 7 -25 16 -67 20 -95 3 -27 9 -59 12 -70 4 -16 3 -18 -8 -7 -16 15
-29 16 -29 0 0 -6 3 -8 7 -5 3 4 12 2 20 -4 18 -16 18 -192 0 -208 -8 -6 -18
-7 -22 -3 -5 4 -5 1 -1 -6 6 -10 11 -10 22 -1 12 9 13 7 9 -17 -3 -16 -9 -56
-14 -89 -13 -86 -26 -115 -53 -116 l-23 -2 23 -4 c17 -3 22 -9 17 -21 -4 -9
-8 -21 -9 -27 -9 -34 -74 -169 -107 -220 -10 -16 -22 -37 -26 -45 -4 -8 -12
-21 -17 -27 -6 -7 -20 -25 -31 -39 -30 -40 -156 -165 -194 -194 -19 -14 -40
-31 -48 -38 -7 -7 -13 -10 -13 -5 0 4 -4 3 -8 -2 -4 -6 -21 -21 -39 -33 -29
-20 -33 -21 -47 -6 -9 8 -16 11 -16 5 0 -5 5 -13 11 -17 12 -7 -53 -44 -77
-44 -7 0 -14 -5 -16 -11 -2 -7 -18 -12 -35 -13 -17 0 -29 -4 -27 -8 6 -9 -109
-45 -140 -43 -14 0 -23 -2 -20 -5 10 -10 -120 -26 -224 -29 -102 -2 -140 8
-125 32 3 6 1 7 -6 3 -9 -6 -9 -11 0 -23 11 -12 9 -13 -12 -9 -13 3 -58 10
-99 17 -41 6 -81 16 -88 22 -7 5 -20 10 -30 11 -77 6 -292 116 -382 195 -19
17 -39 31 -43 31 -5 0 -5 5 -2 10 3 6 1 10 -6 10 -20 0 -189 184 -189 206 0 6
-9 19 -20 29 -11 10 -17 21 -15 25 3 4 -2 13 -9 20 -8 6 -18 25 -21 41 -4 16
-10 29 -15 29 -5 0 -12 10 -16 22 -3 12 -12 35 -19 52 -7 17 -13 33 -13 36 -1
3 -5 17 -11 32 -9 25 -8 28 12 29 l22 2 -23 4 c-26 5 -38 25 -46 78 -4 22 -10
64 -15 94 -5 29 -9 94 -10 143 -2 72 1 88 11 82 10 -6 11 -5 1 7 -7 8 -10 32
-8 54 8 72 27 165 34 165 3 0 7 16 8 36 1 19 9 46 18 60 8 13 13 24 11 24 -9
0 25 74 42 94 10 10 17 21 16 25 -3 15 19 61 26 56 5 -3 11 8 15 25 4 16 10
30 15 30 5 0 11 8 14 18 3 9 18 31 34 47 15 17 38 45 51 63 19 27 29 33 50 29
21 -4 23 -3 10 6 -14 9 -11 16 25 51 86 86 318 226 380 230 13 0 22 3 20 6 -3
2 18 12 47 22 42 14 55 15 67 5 10 -7 13 -8 9 -1 -7 12 21 23 77 30 16 2 30 5
32 6 1 2 28 4 59 5 51 3 58 1 63 -19z"/>
<path d="M1255 2490 c-3 -5 -1 -10 4 -10 6 0 11 5 11 10 0 6 -2 10 -4 10 -3 0
-8 -4 -11 -10z"/>
<path d="M1376 2487 c3 -10 9 -15 12 -12 3 3 0 11 -7 18 -10 9 -11 8 -5 -6z"/>
<path d="M971 2474 c0 -11 3 -14 6 -6 3 7 2 16 -1 19 -3 4 -6 -2 -5 -13z"/>
<path d="M1039 2478 c14 -19 15 -19 -84 -23 -16 -1 -46 -9 -65 -17 -35 -16
-100 -38 -123 -42 -7 -1 -23 -9 -37 -18 -14 -8 -44 -24 -67 -34 -24 -10 -43
-21 -43 -26 0 -4 -6 -8 -14 -8 -8 0 -22 -7 -30 -16 -9 -8 -16 -12 -16 -8 0 4
-8 -2 -18 -12 -9 -11 -39 -34 -67 -52 -27 -18 -49 -35 -48 -37 2 -3 -9 -16
-22 -29 -14 -14 -25 -22 -25 -18 0 4 -8 -6 -19 -23 -10 -16 -32 -45 -50 -62
-17 -18 -29 -33 -25 -33 3 0 -2 -7 -10 -16 -20 -19 -75 -114 -105 -179 -13
-27 -28 -61 -34 -75 -7 -14 -16 -28 -22 -32 -6 -5 -6 -8 1 -8 8 0 8 -11 -2
-37 -7 -21 -13 -48 -14 -60 0 -13 -5 -23 -11 -23 -5 0 -7 5 -3 12 4 7 3 8 -5
4 -9 -6 -9 -11 0 -22 9 -11 8 -18 -2 -31 -12 -14 -12 -15 0 -9 10 7 12 3 6
-15 -4 -13 -13 -30 -19 -38 -9 -12 -8 -13 3 -7 10 7 12 3 6 -14 -9 -29 -9
-183 0 -211 6 -17 4 -20 -6 -13 -12 6 -12 5 0 -9 7 -9 11 -26 8 -37 -3 -11 -1
-23 4 -26 16 -9 10 -24 -13 -35 -21 -9 -21 -9 4 -4 21 4 27 1 26 -12 0 -10 7
-43 15 -73 14 -50 14 -57 -1 -75 -17 -20 -17 -20 6 -1 22 19 22 19 22 -2 0
-11 5 -24 10 -27 12 -7 14 -26 2 -24 -17 3 -32 -2 -32 -10 0 -5 8 -7 18 -4 17
4 48 -21 53 -42 3 -17 33 -79 44 -91 6 -6 17 -22 25 -34 8 -12 21 -28 28 -36
6 -7 12 -15 12 -19 0 -3 10 -16 23 -29 51 -52 75 -85 69 -92 -4 -4 -2 -4 5 0
7 4 17 -2 23 -14 6 -11 17 -20 25 -20 8 0 15 -4 15 -8 0 -9 164 -119 225 -150
83 -44 222 -92 262 -92 13 0 22 -4 19 -8 -3 -5 8 -6 24 -4 17 2 38 1 47 -3 10
-4 38 -7 61 -7 39 1 42 -1 30 -15 -12 -15 -11 -15 10 -2 21 12 25 12 36 -4 12
-15 14 -16 20 -2 8 22 35 18 45 -7 l8 -22 5 22 c4 12 2 20 -2 17 -5 -3 -12 0
-16 6 -4 8 7 10 39 8 25 -2 43 0 40 4 -3 5 10 7 29 6 18 -2 38 0 44 3 9 6 40
14 84 22 8 2 23 6 32 10 9 4 22 4 29 0 7 -4 9 -3 6 3 -6 9 52 35 86 38 10 1
22 6 25 12 13 19 91 53 109 47 14 -5 15 -4 4 4 -11 8 -10 12 6 21 11 5 24 7
28 3 5 -4 5 -2 2 4 -4 7 -1 14 6 17 6 2 37 25 68 50 31 25 60 43 64 39 5 -4 5
-2 2 4 -6 10 54 78 64 72 2 -2 3 -1 2 1 -5 7 61 76 70 73 5 -1 6 2 2 8 -4 6
10 33 29 60 20 28 36 54 36 59 0 5 6 14 14 20 8 7 18 26 21 42 4 17 11 26 17
23 6 -4 8 -3 5 3 -3 5 5 40 19 78 14 38 30 91 36 118 7 35 13 46 21 38 6 -6
18 -11 27 -10 9 0 6 4 -7 9 -18 7 -23 17 -23 43 0 19 2 36 5 39 10 9 11 277 2
271 -5 -3 -8 10 -6 28 1 19 -2 43 -6 54 -16 46 -17 51 -4 38 7 -7 18 -13 23
-13 6 0 1 7 -11 15 -20 14 -63 120 -63 157 0 10 -4 18 -10 18 -5 0 -10 7 -10
15 0 17 -38 93 -51 101 -5 3 -9 13 -9 24 0 10 -7 21 -16 24 -8 3 -13 10 -10
15 3 4 -3 16 -14 26 -11 10 -17 23 -13 29 3 6 3 8 -2 4 -9 -8 -72 71 -67 85 1
5 -1 6 -6 3 -10 -6 -77 64 -74 77 1 4 -3 8 -8 8 -6 1 -13 2 -17 3 -18 3 -72
50 -67 58 3 4 -1 8 -9 8 -8 0 -24 9 -37 20 -13 11 -29 20 -36 20 -7 0 -14 5
-16 11 -2 5 -11 11 -20 12 -9 2 -22 8 -29 14 -8 6 -31 16 -51 24 -20 7 -35 16
-33 19 2 4 -1 7 -8 7 -31 1 -115 29 -141 47 -16 11 -26 14 -22 8 7 -12 -22
-10 -64 5 -8 3 -82 7 -164 9 -100 2 -154 8 -165 16 -14 12 -15 11 -2 -4z m331
-42 c406 -73 740 -374 855 -771 143 -495 -89 -1034 -545 -1269 -173 -89 -299
-119 -500 -119 -168 0 -257 16 -395 70 -359 141 -615 451 -680 822 -41 233 -3
484 106 696 124 243 366 451 622 534 147 49 382 65 537 37z m-170 -2180 c0
-11 -19 -15 -25 -6 -3 5 1 10 9 10 9 0 16 -2 16 -4z"/>
<path d="M960 2400 c-511 -109 -868 -577 -837 -1095 26 -428 315 -807 716
-941 130 -44 236 -58 389 -52 203 8 372 63 539 174 214 142 372 365 440 619
23 88 26 119 26 260 0 142 -3 172 -26 260 -106 395 -419 695 -812 776 -119 25
-318 25 -435 -1z m214 -137 c10 -32 21 -64 24 -71 3 -10 -2 -13 -19 -10 -16 2
-23 9 -21 21 2 12 -4 17 -22 17 -18 0 -24 -4 -20 -15 5 -11 -1 -15 -19 -15
l-24 0 23 48 c13 26 21 55 18 65 -4 13 0 17 18 17 21 0 27 -9 42 -57z m150 41
c17 -7 22 -44 6 -44 -5 0 -10 7 -10 15 0 19 -34 20 -49 1 -7 -8 -11 -27 -9
-43 3 -25 7 -28 36 -27 34 2 37 -2 23 -25 -6 -9 -18 -11 -34 -7 -52 13 -70 53
-46 99 19 36 45 45 83 31z m-359 -30 c9 -10 13 -24 10 -36 -4 -10 0 -30 9 -43
20 -31 20 -35 -3 -35 -10 0 -21 9 -24 20 -6 23 -37 27 -37 5 0 -8 5 -15 10
-15 21 0 9 -18 -15 -22 -20 -4 -24 -2 -21 11 5 16 -5 69 -19 103 -5 13 0 17
27 21 18 2 36 5 40 5 4 1 14 -5 23 -14z m500 -73 c0 -39 -1 -71 -3 -71 -2 0
-13 5 -24 11 -17 9 -18 13 -7 20 12 8 12 11 -1 19 -22 14 -40 12 -40 -4 0 -9
-7 -12 -20 -9 -26 7 -26 8 15 51 19 20 35 45 35 54 0 14 5 16 23 9 20 -8 22
-15 22 -80z m-630 28 c0 -8 -8 -13 -17 -11 -19 3 -32 -13 -23 -28 4 -7 13 -7
26 0 15 8 19 7 19 -4 0 -7 -7 -16 -15 -20 -16 -6 -21 -36 -6 -36 5 0 16 7 25
15 18 19 22 19 30 0 4 -10 -6 -20 -31 -30 -44 -19 -64 -19 -57 -1 4 11 -10 53
-34 98 -4 9 58 37 73 34 6 -2 10 -9 10 -17z m756 -6 c74 -44 28 -149 -53 -121
-43 15 -53 33 -30 56 10 10 25 33 33 50 8 18 15 32 17 32 2 0 17 -8 33 -17z
m-852 -84 c18 -33 8 -72 -23 -93 -32 -20 -44 -23 -46 -11 -5 23 -41 85 -50 85
-20 0 -9 20 18 35 40 22 83 15 101 -16z m1021 -31 c0 -19 -23 -18 -37 2 -11
15 -18 19 -26 11 -7 -7 -6 -16 6 -29 19 -21 11 -38 -9 -21 -8 6 -21 8 -30 5
-13 -5 -14 -9 -4 -21 7 -8 16 -13 20 -10 13 8 20 -9 10 -24 -6 -11 -16 -8 -44
14 -36 27 -46 45 -25 45 14 0 47 38 59 68 l10 23 35 -28 c19 -15 35 -31 35
-35z m-375 -28 c128 -40 222 -96 315 -190 96 -96 148 -178 187 -295 25 -73 27
-94 28 -230 0 -139 -2 -156 -28 -230 -42 -119 -99 -209 -192 -301 -66 -66 -99
-90 -176 -128 -130 -64 -199 -80 -339 -80 -140 0 -210 17 -340 81 -78 39 -110
62 -180 133 -96 96 -148 178 -187 295 -25 72 -27 94 -28 230 0 143 1 154 31
238 45 124 87 190 184 287 111 112 245 182 398 210 78 15 248 4 327 -20z m443
-12 c9 -9 6 -21 -13 -54 l-25 -43 46 16 c39 13 48 13 55 2 12 -19 11 -29 -2
-29 -15 0 -75 -51 -71 -62 3 -12 -12 -10 -26 4 -16 16 -15 28 2 28 7 0 19 7
27 16 11 14 9 15 -24 9 -43 -8 -44 -5 -15 44 20 33 21 35 3 21 -11 -8 -27 -23
-36 -34 -16 -19 -17 -19 -28 2 -9 17 -9 22 1 22 18 1 89 56 81 64 -3 3 -2 6 3
6 6 0 15 -5 22 -12z m-1283 -17 c0 -3 12 -22 26 -40 26 -33 49 -35 49 -5 0 17
16 19 26 2 4 -7 -6 -23 -26 -40 -31 -25 -45 -28 -45 -9 0 12 -53 71 -64 71
-16 0 -13 11 6 26 17 12 28 10 28 -5z m-35 -103 c69 -28 65 -25 50 -43 -14
-17 -35 -21 -25 -5 3 6 0 10 -8 10 -19 0 -31 -31 -15 -41 9 -6 9 -11 -1 -23
-19 -23 -26 -20 -40 20 -7 20 -22 45 -33 56 -15 15 -17 22 -7 34 15 18 13 18
79 -8z m1450 -49 c0 -4 -9 -9 -20 -12 -11 -3 -20 -10 -20 -16 0 -6 9 -11 20
-11 11 0 20 5 20 11 0 8 5 8 15 -1 26 -21 17 -30 -32 -30 -27 0 -55 -5 -63
-10 -8 -5 -11 -10 -7 -10 5 0 5 -5 2 -11 -5 -6 -12 -4 -21 8 -15 20 -19 47 -5
39 18 -11 42 7 63 47 19 38 21 40 34 22 8 -10 14 -22 14 -26z m-22 -1035 c2
-1 -2 -12 -8 -24 -10 -18 -14 -20 -21 -9 -8 11 -12 10 -25 -6 -13 -18 -13 -20
0 -23 9 -2 16 -7 16 -11 0 -13 -29 -46 -30 -34 0 18 -60 83 -76 83 -17 0 -17
5 -3 28 10 16 19 17 78 8 36 -5 67 -10 69 -12z m-130 -94 c20 -13 40 -23 45
-22 11 3 9 -22 -3 -34 -7 -7 -23 2 -51 27 -23 21 -44 38 -48 37 -20 -2 -22 4
-5 23 14 15 20 17 22 8 1 -8 19 -25 40 -39z m-1153 -30 c9 -10 15 -26 12 -35
-9 -22 -27 -19 -27 5 0 11 -7 23 -15 26 -21 8 -65 -22 -65 -44 0 -24 19 -42
36 -35 8 3 14 0 14 -6 0 -25 -32 -23 -57 2 -24 23 -25 28 -13 56 7 18 20 36
29 41 27 16 67 11 86 -10z m1119 -77 c6 2 11 11 11 20 0 24 11 29 25 12 11
-14 9 -21 -17 -47 l-31 -30 -37 41 c-21 22 -44 41 -53 41 -13 0 -13 3 2 19 17
19 18 18 53 -20 20 -22 41 -38 47 -36z m-1060 31 c9 -3 16 -13 16 -22 0 -8 -3
-12 -6 -9 -7 7 -38 -28 -58 -67 -11 -22 -15 -24 -30 -13 -16 12 -14 16 18 51
20 20 36 44 36 52 0 16 2 16 24 8z m913 -31 c-9 -15 51 -76 67 -70 9 4 13 13
10 22 -3 8 -2 15 4 15 11 0 37 -29 31 -33 -48 -37 -73 -49 -77 -38 -6 19 -63
81 -73 81 -6 0 -9 -8 -7 -17 2 -12 -3 -17 -14 -15 -19 3 -32 -13 -23 -28 4 -7
13 -6 26 1 27 14 39 1 15 -16 -11 -8 -16 -21 -13 -29 8 -19 37 -10 37 11 0 19
24 11 28 -8 1 -9 -12 -22 -33 -32 -35 -17 -64 -23 -52 -11 8 8 -18 59 -43 84
-20 20 -19 20 29 45 27 13 52 29 56 35 3 5 13 10 21 10 8 0 13 -3 11 -7z
m-827 -25 c22 -13 40 -26 40 -30 0 -13 -24 -22 -28 -10 -2 7 -7 12 -11 12 -12
0 -49 -74 -44 -88 4 -10 -1 -10 -21 -1 -26 12 -35 29 -16 29 10 0 50 58 50 73
0 4 -7 7 -15 7 -8 0 -15 7 -15 15 0 21 14 19 60 -7z m90 -48 c10 -7 12 -12 4
-17 -6 -5 -8 -17 -4 -27 5 -16 8 -17 16 -5 5 8 9 17 10 22 1 4 2 9 3 12 0 3
10 1 21 -5 18 -10 17 -13 -20 -47 -30 -26 -39 -41 -34 -55 5 -17 3 -19 -18
-13 -32 10 -33 12 -14 31 16 16 16 37 0 97 -6 19 12 23 36 7z m598 -22 c20
-20 14 -46 -14 -65 -25 -16 -25 -17 -8 -30 16 -12 17 -15 4 -23 -24 -16 -40
-11 -40 10 0 24 -27 82 -44 92 -13 9 29 26 65 27 14 1 30 -4 37 -11z m-400
-34 c44 -30 18 -124 -34 -124 -40 0 -67 36 -60 79 9 57 49 77 94 45z m290 -3
c3 -10 -3 -11 -28 -6 -45 10 -36 -14 10 -29 39 -12 51 -44 26 -65 -18 -15 -68
-11 -74 6 -2 9 5 11 27 7 43 -9 42 20 0 32 -41 12 -58 37 -39 59 16 19 71 17
78 -4z m-148 -11 c0 -21 -15 -27 -25 -10 -11 18 -35 11 -35 -10 0 -15 7 -20
25 -20 14 0 25 -4 25 -10 0 -5 -12 -10 -26 -10 -27 0 -27 1 -7 -47 3 -8 -4
-13 -19 -13 -24 0 -24 2 -20 54 3 33 0 56 -7 60 -24 15 -8 26 39 26 43 0 50
-3 50 -20z"/>
<path d="M1127 2260 c-3 -13 0 -20 9 -20 8 0 14 9 14 20 0 11 -4 20 -9 20 -5
0 -11 -9 -14 -20z"/>
<path d="M910 2247 c0 -19 10 -27 26 -20 21 8 17 33 -6 33 -11 0 -20 -6 -20
-13z"/>
<path d="M1422 2227 c-9 -11 -10 -17 -2 -22 15 -9 23 -1 18 21 -3 15 -4 16
-16 1z"/>
<path d="M1551 2175 c-12 -20 -19 -41 -16 -46 12 -18 45 -9 61 17 16 24 16 26
-3 45 l-20 21 -22 -37z"/>
<path d="M656 2141 c-7 -10 31 -81 44 -81 4 0 13 7 20 14 9 12 9 21 -2 43 -13
28 -51 43 -62 24z"/>
<path d="M1075 2090 c-160 -25 -311 -106 -427 -229 -82 -87 -133 -175 -170
-291 -19 -64 -23 -95 -22 -210 0 -118 4 -145 27 -215 72 -215 246 -396 451
-466 277 -95 551 -33 757 171 95 94 146 175 187 298 23 68 26 93 26 217 0 124
-3 149 -26 217 -66 199 -221 373 -401 453 -114 50 -283 73 -402 55z m283 -36
c186 -48 351 -176 446 -346 81 -147 107 -339 67 -498 -62 -251 -237 -440 -479
-517 -318 -101 -680 49 -836 346 -199 380 -11 857 394 997 129 45 278 52 408
18z"/>
<path d="M1163 1935 c0 -22 2 -30 4 -17 2 12 2 30 0 40 -3 9 -5 -1 -4 -23z"/>
<path d="M1041 1854 c0 -11 3 -14 6 -6 3 7 2 16 -1 19 -3 4 -6 -2 -5 -13z"/>
<path d="M1281 1854 c0 -11 3 -14 6 -6 3 7 2 16 -1 19 -3 4 -6 -2 -5 -13z"/>
<path d="M1314 1825 c-14 -21 -24 -25 -65 -25 -35 0 -51 5 -58 18 -10 15 -10
15 -11 -3 0 -12 5 -26 11 -32 7 -7 3 -9 -15 -6 -21 4 -25 9 -20 29 7 26 -10
34 -20 9 -8 -23 -102 -21 -115 3 -9 15 -10 15 -11 0 0 -24 -30 -27 -67 -5 -20
12 -33 15 -33 8 0 -7 16 -21 35 -33 22 -12 35 -27 33 -37 -3 -13 -16 -16 -73
-15 -42 0 -62 -2 -50 -7 37 -14 160 -10 193 7 42 21 102 30 102 15 0 -6 -6
-11 -13 -11 -24 0 -44 -34 -34 -58 14 -32 25 -27 21 9 -2 16 0 28 5 24 5 -3
11 -1 13 5 4 14 48 21 48 8 0 -6 3 -8 6 -5 4 4 1 13 -6 22 -11 13 -9 15 12 15
13 0 41 -9 63 -20 29 -15 59 -20 115 -20 41 0 81 4 88 8 7 5 -15 6 -48 4 -48
-4 -61 -1 -66 12 -6 15 16 46 33 46 4 0 14 9 21 20 12 19 11 19 -21 2 -49 -28
-90 -9 -55 26 7 7 9 12 5 12 -3 0 -14 -11 -23 -25z m-241 -39 c6 4 1 -5 -12
-19 -14 -15 -32 -27 -40 -27 -14 0 -14 2 -1 10 13 8 13 11 1 19 -22 14 -4 33
20 21 11 -6 25 -8 32 -4z m255 5 c10 -6 5 -11 -17 -20 -30 -13 -51 -9 -51 10
0 6 4 8 8 5 4 -2 14 -1 22 5 18 11 22 11 38 0z"/>
<path d="M1205 1694 c-4 -21 -13 -48 -20 -59 -16 -26 -21 -296 -6 -324 6 -11
8 -27 5 -35 -7 -17 -34 -22 -34 -6 0 6 -4 10 -10 10 -5 0 -10 -7 -10 -15 0 -8
5 -15 11 -15 8 0 8 -4 1 -13 -7 -8 -10 -49 -8 -109 2 -52 0 -101 -4 -108 -5
-8 -19 -11 -43 -6 -37 7 -73 38 -63 55 4 5 -3 15 -16 22 -21 11 -21 12 -3 25
14 11 15 14 4 14 -21 0 -38 -20 -32 -36 3 -10 0 -12 -10 -8 -8 3 -13 13 -10
24 3 10 -1 21 -8 25 -7 5 -10 4 -5 -3 8 -13 -23 -92 -36 -92 -6 0 -7 7 -4 16
3 8 2 13 -3 10 -5 -3 -13 13 -19 37 -6 23 -23 92 -38 152 -15 61 -42 156 -60
212 -19 56 -34 109 -34 118 0 10 -7 15 -17 13 -17 -3 -18 -24 -19 -258 0 -140
-2 -259 -3 -265 -2 -5 -3 -14 -2 -19 1 -4 2 -24 3 -45 1 -42 51 -119 82 -127
12 -3 67 2 123 11 57 8 123 15 147 15 50 0 69 23 39 47 -12 10 -13 12 -3 9 8
-3 22 -8 30 -12 10 -3 16 -19 16 -45 2 -57 20 -71 32 -25 12 42 5 76 -14 76
-8 0 -14 7 -14 15 0 8 7 15 15 15 8 0 15 -5 15 -10 0 -6 11 -8 25 -4 26 6 37
-12 12 -22 -7 -2 -13 -21 -13 -42 0 -20 -7 -51 -16 -69 -14 -27 -14 -34 -2
-44 21 -17 40 4 48 51 4 27 14 45 31 56 23 15 38 15 195 -1 163 -16 172 -16
190 0 27 24 29 43 39 330 9 236 8 252 -10 292 -10 23 -19 48 -19 56 0 8 -11
17 -25 20 -24 4 -25 2 -21 -26 3 -17 0 -37 -5 -43 -5 -7 -12 -20 -14 -30 -15
-65 -15 -69 -7 -51 7 18 8 18 23 0 27 -31 30 -42 18 -62 -10 -15 -9 -22 4 -36
9 -9 17 -20 17 -25 0 -6 -52 -30 -66 -30 -2 0 -5 28 -6 63 -2 34 -4 -14 -4
-108 -1 -93 2 -180 7 -191 12 -33 -3 -39 -16 -7 l-12 28 -7 -43 c-6 -30 -4
-47 6 -59 11 -15 11 -16 -7 -9 -11 5 -40 14 -65 20 -42 12 -43 13 -17 18 15 3
30 1 33 -3 3 -5 12 -9 21 -9 11 0 14 7 11 25 -3 14 -2 28 3 31 4 2 6 11 2 19
-3 8 0 15 7 15 8 0 9 6 5 18 -4 9 -8 23 -8 30 0 6 -4 12 -8 12 -8 0 -19 -37
-19 -67 0 -20 -3 -21 -26 -13 -14 6 -43 10 -65 10 -24 0 -39 5 -39 13 0 8 -3
8 -9 -2 -7 -12 -15 -12 -33 -5 -13 6 -35 8 -50 3 -30 -8 -36 -1 -16 19 7 7 8
12 2 12 -6 0 -23 -13 -37 -30 -35 -39 -60 -40 -50 -2 3 15 6 36 5 46 0 10 5
31 12 45 9 18 15 88 18 228 6 266 -2 253 161 253 131 0 166 10 133 35 -13 10
-27 12 -40 8 -25 -10 -139 -10 -182 0 -26 5 -33 3 -37 -13 -3 -11 -13 -20 -22
-20 -11 0 -15 6 -11 18 3 9 2 23 -3 31 -7 11 -11 4 -16 -25z m2 -211 c-2 -16
-4 -5 -4 22 0 28 2 40 4 28 2 -13 2 -35 0 -50z m443 30 c0 -12 -20 -39 -20
-28 0 6 -5 3 -10 -5 -7 -10 -10 -11 -10 -2 0 7 7 15 15 18 8 4 12 10 9 15 -3
5 0 9 5 9 6 0 11 -3 11 -7z m-860 -120 c20 -55 27 -89 20 -91 -5 -2 -17 -10
-25 -19 -13 -13 -15 -12 -15 7 0 11 7 23 15 26 11 4 12 10 6 18 -6 7 -15 34
-21 61 -6 28 -13 58 -16 68 -3 9 -3 17 -1 17 3 0 19 -39 37 -87z m-50 -64 c0
-6 -4 -7 -10 -4 -5 3 -10 11 -10 16 0 6 5 7 10 4 6 -3 10 -11 10 -16z m92 -84
c4 -16 9 -50 11 -75 4 -46 8 -61 33 -118 8 -18 14 -39 14 -47 0 -18 -21 -19
-39 -2 -12 10 -13 9 -7 -7 5 -16 3 -17 -21 -11 -16 4 -28 7 -29 8 0 1 -5 25
-12 52 -7 36 -8 53 0 60 8 7 8 6 3 -4 -5 -9 2 -7 18 5 32 23 34 34 7 34 -26 0
-35 54 -21 133 3 20 35 -1 43 -28z m775 3 c-3 -7 -5 -2 -5 12 0 14 2 19 5 13
2 -7 2 -19 0 -25z m-865 -30 c2 -20 0 -34 -4 -32 -4 3 -8 24 -7 47 1 47 6 41
11 -15z m425 -5 c-3 -10 -5 -4 -5 12 0 17 2 24 5 18 2 -7 2 -21 0 -30z m0
-160 c-2 -21 -4 -6 -4 32 0 39 2 55 4 38 2 -18 2 -50 0 -70z m-417 61 c0 -14
-4 -23 -10 -19 -5 3 -10 15 -10 26 0 10 5 19 10 19 6 0 10 -12 10 -26z m876
-81 c-11 -28 -26 -11 -26 30 l0 42 15 -29 c9 -16 13 -36 11 -43z m-866 17 c0
-16 -4 -30 -10 -30 -5 0 -13 -1 -16 -2 -4 -2 -8 12 -10 30 -3 26 0 32 16 32
16 0 20 -7 20 -30z m510 0 c0 -5 -8 -10 -18 -10 -10 0 -22 -3 -28 -7 -5 -5 -1
0 9 10 21 19 37 22 37 7z m65 0 c-3 -5 -15 -10 -26 -10 -10 0 -19 5 -19 10 0
6 12 10 26 10 14 0 23 -4 19 -10z m110 -10 c4 -6 -10 -10 -34 -10 -22 0 -43 5
-46 10 -4 6 10 10 34 10 22 0 43 -4 46 -10z m-80 -20 c3 -5 2 -10 -4 -10 -5 0
-13 5 -16 10 -3 6 -2 10 4 10 5 0 13 -4 16 -10z m-198 -117 c-3 -10 -5 -4 -5
12 0 17 2 24 5 18 2 -7 2 -21 0 -30z"/>
<path d="M801 1029 c-1 -9 7 -23 17 -30 15 -12 16 -12 6 1 -6 8 -14 22 -17 30
-5 13 -6 12 -6 -1z"/>
<path d="M1037 1704 c-6 -7 -22 -8 -119 -12 -35 -1 -48 -6 -48 -17 0 -15 26
-19 98 -15 18 1 39 -3 47 -10 9 -7 15 -8 20 0 3 5 12 10 18 10 7 0 6 -4 -3
-10 -12 -8 -11 -10 7 -10 12 0 29 -3 39 -7 13 -5 10 2 -9 23 -15 16 -25 35
-22 42 5 12 -17 17 -28 6z"/>
<path d="M1120 1625 c-7 -9 -8 -15 -2 -15 16 0 20 -21 27 -156 4 -71 9 -131
12 -134 6 -6 2 291 -4 307 -7 17 -18 17 -33 -2z"/>
<path d="M1571 1631 c-9 -6 -10 -11 -2 -15 6 -4 11 -2 11 4 0 7 7 10 15 6 8
-3 15 -1 15 4 0 12 -20 13 -39 1z"/>
<path d="M1017 1603 c-3 -5 0 -21 7 -37 l12 -30 1 37 c1 34 -9 48 -20 30z"/>
<path d="M1536 1484 c-4 -9 -4 -19 -1 -22 2 -3 7 3 11 12 4 9 4 19 1 22 -2 3
-7 -3 -11 -12z"/>
<path d="M1530 1410 c0 -5 5 -10 10 -10 6 0 10 5 10 10 0 6 -4 10 -10 10 -5 0
-10 -4 -10 -10z"/>
<path d="M1457 1360 c18 -4 40 -13 49 -21 13 -10 17 -10 25 2 14 23 12 24 -49
25 -46 2 -51 0 -25 -6z"/>
<path d="M1541 1285 l1 -50 10 38 c7 28 7 42 -1 50 -8 8 -11 -2 -10 -38z"/>
<path d="M1530 1190 c0 -16 2 -30 4 -30 2 0 6 14 8 30 3 17 1 30 -4 30 -4 0
-8 -13 -8 -30z"/>
<path d="M471 1919 c8 -16 14 -18 22 -10 9 9 8 14 -3 21 -24 16 -31 11 -19
-11z"/>
<path d="M1835 840 c14 -15 20 -17 26 -8 8 13 -7 28 -30 28 -11 0 -10 -5 4
-20z"/>
<path d="M1430 551 c0 -28 13 -40 31 -31 22 13 14 40 -12 40 -10 0 -19 -4 -19
-9z"/>
<path d="M1032 518 c-17 -17 -15 -63 3 -78 24 -20 47 6 43 49 -3 38 -24 51
-46 29z"/>
<path d="M862 2450 c0 -14 2 -19 5 -12 2 6 2 18 0 25 -3 6 -5 1 -5 -13z"/>
<path d="M1490 2450 c0 -11 2 -20 4 -20 2 0 6 9 9 20 3 11 1 20 -4 20 -5 0 -9
-9 -9 -20z"/>
<path d="M596 2337 c3 -10 9 -15 12 -12 3 3 0 11 -7 18 -10 9 -11 8 -5 -6z"/>
<path d="M1755 2339 c-4 -6 -5 -12 -2 -15 2 -3 7 2 10 11 7 17 1 20 -8 4z"/>
<path d="M530 2316 c0 -2 7 -7 16 -10 8 -3 12 -2 9 4 -6 10 -25 14 -25 6z"/>
<path d="M1805 2309 c-4 -6 -5 -12 -2 -15 2 -3 7 2 10 11 7 17 1 20 -8 4z"/>
<path d="M440 2246 c0 -2 7 -7 16 -10 8 -3 12 -2 9 4 -6 10 -25 14 -25 6z"/>
<path d="M1895 2240 c-3 -5 -1 -10 4 -10 6 0 11 5 11 10 0 6 -2 10 -4 10 -3 0
-8 -4 -11 -10z"/>
<path d="M250 2030 c0 -5 5 -10 11 -10 5 0 7 5 4 10 -3 6 -8 10 -11 10 -2 0
-4 -4 -4 -10z"/>
<path d="M2095 2030 c-3 -5 -1 -10 4 -10 6 0 11 5 11 10 0 6 -2 10 -4 10 -3 0
-8 -4 -11 -10z"/>
<path d="M2120 1969 c0 -5 5 -7 10 -4 6 3 10 8 10 11 0 2 -4 4 -10 4 -5 0 -10
-5 -10 -11z"/>
<path d="M195 1920 c3 -5 8 -10 11 -10 2 0 4 5 4 10 0 6 -5 10 -11 10 -5 0 -7
-4 -4 -10z"/>
<path d="M2145 1920 c4 -6 11 -8 16 -5 14 9 11 15 -7 15 -8 0 -12 -5 -9 -10z"/>
<path d="M2210 1819 c0 -5 5 -7 10 -4 6 3 10 8 10 11 0 2 -4 4 -10 4 -5 0 -10
-5 -10 -11z"/>
<path d="M85 1650 c3 -5 8 -10 11 -10 2 0 4 5 4 10 0 6 -5 10 -11 10 -5 0 -7
-4 -4 -10z"/>
<path d="M2286 1534 c-5 -14 -4 -15 9 -4 17 14 19 20 6 20 -5 0 -12 -7 -15
-16z"/>
<path d="M70 1080 c-9 -6 -10 -10 -3 -10 6 0 15 5 18 10 8 12 4 12 -15 0z"/>
<path d="M2277 1079 c7 -7 15 -10 18 -7 3 3 -2 9 -12 12 -14 6 -15 5 -6 -5z"/>
<path d="M2230 986 c0 -2 8 -10 18 -17 15 -13 16 -12 3 4 -13 16 -21 21 -21
13z"/>
<path d="M2210 920 c0 -12 28 -21 35 -11 2 5 -4 11 -15 14 -11 3 -20 2 -20 -3z"/>
<path d="M2155 820 c-3 -5 1 -10 10 -10 9 0 13 5 10 10 -3 6 -8 10 -10 10 -2
0 -7 -4 -10 -10z"/>
<path d="M2115 710 c3 -5 8 -10 11 -10 2 0 4 5 4 10 0 6 -5 10 -11 10 -5 0 -7
-4 -4 -10z"/>
<path d="M270 670 c-9 -6 -10 -10 -3 -10 6 0 15 5 18 10 8 12 4 12 -15 0z"/>
<path d="M2060 676 c0 -2 7 -7 16 -10 8 -3 12 -2 9 4 -6 10 -25 14 -25 6z"/>
<path d="M309 623 c-13 -16 -12 -17 4 -4 16 13 21 21 13 21 -2 0 -10 -8 -17
-17z"/>
<path d="M2030 636 c0 -2 8 -10 18 -17 15 -13 16 -12 3 4 -13 16 -21 21 -21
13z"/>
<path d="M1992 591 c-11 -6 -9 -9 6 -13 15 -4 19 -2 15 8 -6 16 -4 16 -21 5z"/>
<path d="M1956 551 c-3 -5 1 -11 9 -14 9 -4 12 -1 8 9 -6 16 -10 17 -17 5z"/>
<path d="M1876 467 c3 -10 9 -15 12 -12 3 3 0 11 -7 18 -10 9 -11 8 -5 -6z"/>
<path d="M520 429 c0 -5 5 -7 10 -4 6 3 10 8 10 11 0 2 -4 4 -10 4 -5 0 -10
-5 -10 -11z"/>
<path d="M1825 430 c3 -5 8 -10 11 -10 2 0 4 5 4 10 0 6 -5 10 -11 10 -5 0 -7
-4 -4 -10z"/>
<path d="M616 364 c-5 -14 -4 -15 9 -4 17 14 19 20 6 20 -5 0 -12 -7 -15 -16z"/>
<path d="M719 313 c-13 -16 -12 -17 4 -4 9 7 17 15 17 17 0 8 -8 3 -21 -13z"/>
<path d="M890 265 c0 -8 2 -15 4 -15 2 0 6 7 10 15 3 8 1 15 -4 15 -6 0 -10
-7 -10 -15z"/>
<path d="M1340 256 c0 -2 7 -9 15 -16 9 -7 15 -8 15 -2 0 5 -7 12 -15 16 -8 3
-15 4 -15 2z"/>
<path d="M1297 229 c4 -13 8 -18 11 -10 2 7 -1 18 -6 23 -8 8 -9 4 -5 -13z"/>
</g>
</svg>
